# xmcd CD database file
#
# Track frame offsets:
#	150
#	24491
#	49343
#	96859
#	121768
#	175069
#
# Disc length: 2744 seconds
#
# Revision: 0
# Processed by: cddbd v1.5.2PL0 Copyright (c) Steve Scherf et al.
# Submitted via: CDex 1.51
#
DISCID=440ab606
DTITLE=Theo Travis - View from the Edge 2
DYEAR=1994
DGENRE=Jazz
TTITLE0=View from the Edge - Alternate take
TTITLE1=Freedom - Alternate take
TTITLE2=Fort Dunlop - Alternate take
TTITLE3=Psychogroove - Cipher remix
TTITLE4=The Purple Sky - Hopper remix
TTITLE5=The Ghosts of Witley Court - Live
EXTD=YEAR: 1994
EXTT0=
EXTT1=
EXTT2=
EXTT3=
EXTT4=
EXTT5=
PLAYORDER=
